<svg width="234" height="80" viewBox="0 0 234 80" fill="none" xmlns="http://www.w3.org/2000/svg">
<path fill-rule="evenodd" clip-rule="evenodd" d="M77.9984 8.23507L70.0835 16.2184L67.5386 14.2825C60.1742 8.67975 51.0045 6.57047 41.7693 8.3545C30.9031 10.4535 21.3002 19.0289 17.9287 29.6442C17.3163 31.5725 17.1558 31.8063 16.1197 32.2775C14.6398 32.9504 12.8769 34.746 12.0939 36.3778C10.1469 40.4348 11.7969 45.535 15.7264 47.6054C17.19 48.3765 17.4066 48.616 17.8355 49.9391C18.9529 53.3856 21.4066 57.7823 23.9761 60.9425L24.771 61.9201L16.8251 69.9384C12.455 74.3484 8.87951 78.1833 8.87951 78.4605C7.89356 79.5745 9.20915 80.6066 10.2366 79.5745C10.3612 79.5745 14.0422 75.9732 18.4167 71.5715L26.3702 63.5687L28.8075 65.4271C31.7445 67.667 36.7675 70.1454 40.1614 71.0295C43.3121 71.8504 49.9757 72.1506 53.2615 71.6196C63.4117 69.9794 72.1142 63.5384 76.7197 54.2573C77.5707 52.5423 78.0929 51.8207 78.5504 51.7266C78.9027 51.6541 79.7169 51.5096 80.3601 51.4055C82.0715 51.1286 84.7197 49.6035 86.0867 48.1076C86.743 47.3893 87.6967 45.9148 88.2054 44.8318C89.0421 43.0504 89.1307 42.5939 89.1307 40.0606C89.1307 37.522 89.0433 37.0729 88.1972 35.2714C86.5317 31.7255 83.1155 29.0692 79.6944 28.6605L78.187 28.4804L76.8594 25.7279C76.1291 24.214 74.6682 21.8208 73.6128 20.4092L71.6941 17.8431L79.6084 9.85632C83.9613 5.46379 87.3574 1.60124 87.5227 1.41449C88.2909 0.546661 87.2677 -0.485416 86.3674 0.251781C86.1735 0.4105 82.3519 3.84431 77.9984 8.23507ZM52.4403 12.6556C56.9501 13.3893 62.323 15.8097 65.2141 18.4099L66.6194 19.6738L62.3397 24.0094L58.0596 28.345L57.0773 27.601C54.8153 25.8881 52.3072 24.9436 49.1109 24.6015L47.3898 24.4172L48.202 25.4914C51.8632 30.3328 50.157 37.3695 44.6601 40.0989C41.2226 41.8057 37.208 41.2386 34.2623 38.6301C33.6858 38.1194 33.1326 37.7016 33.0332 37.7016C32.7464 37.7016 32.8236 41.0051 33.151 42.7467C33.4913 44.5569 34.8096 47.5567 35.896 48.9934L36.6324 49.9674L32.4219 54.2069C27.6416 59.0199 28.1345 58.8946 25.9773 55.8449C24.7292 54.081 22.3278 49.4098 22.3278 48.7463C22.3278 48.5596 22.84 48.1739 23.4662 47.8891C27.4346 46.0841 29.3776 40.7621 27.5919 36.5872C26.8321 34.8103 24.6172 32.6175 23.0584 32.0988L22.055 31.7647L22.7792 29.8247C24.8923 24.1615 29.5054 18.8434 34.9759 15.7628C37.0525 14.5936 41.3717 13.0649 43.7027 12.6745C45.9319 12.3012 50.2052 12.2917 52.4403 12.6556ZM69.3167 22.4683C70.4855 23.8109 72.8214 27.6453 73.0559 28.6063C73.2091 29.2344 73.1269 29.4278 72.6396 29.5838C71.5172 29.943 69.1065 32.1047 68.0979 33.6564C65.2097 38.0993 65.6438 44.0542 69.1346 47.8737C69.823 48.6272 70.986 49.5896 71.7187 50.0125C72.4516 50.4354 73.093 50.8107 73.1439 50.847C73.3377 50.9838 71.6137 54.1414 70.4095 55.855C68.5139 58.5525 64.6075 62.1162 61.7766 63.73C58.6899 65.4899 54.7455 66.7859 51.101 67.2376C46.0751 67.8607 40.3324 66.7484 35.4837 64.2133C33.337 63.091 29.929 60.6152 29.929 60.1779C29.929 60.0567 31.8112 58.0621 34.112 55.7459L38.2947 51.5344L39.0636 52.1442C40.5201 53.2998 43.6957 54.5834 45.8842 54.9016C48.9326 55.3445 51.8892 54.876 54.5876 53.5225C57.1992 52.2129 58.6063 51.0419 60.2107 48.8436C64.0175 43.6281 64.0543 36.1894 60.2999 30.8712L59.6681 29.9763L63.871 25.7297C66.1824 23.3943 68.1604 21.4831 68.2663 21.4831C68.3724 21.4831 68.8451 21.9264 69.3167 22.4683ZM114.419 30.7604V37.9964H116.027H117.635V33.0817C117.635 30.3788 117.705 28.2371 117.79 28.3229C117.875 28.4084 118.698 30.587 119.619 33.1636L121.295 37.849H122.496H123.958C123.958 37.849 124.768 35.1936 125.557 33.0292C126.346 30.8651 127.126 28.8746 127.29 28.606C127.497 28.266 127.564 29.6148 127.508 33.0575L127.429 37.997L129.11 37.9967L130.791 37.9964V30.7604V23.5243H128.197H125.712L124.28 28.0628C123.486 30.4649 122.752 32.3454 122.648 32.2413C122.544 32.1372 121.8 30.1715 120.996 27.8732L119.427 23.5243H116.942H114.419V30.7604ZM134.007 30.7719V37.9964H135.761H137.515V30.7719V23.5473H135.761H134.007V30.7719ZM141.024 30.7719V37.9964H142.621H144.218L144.042 33.0572C143.945 30.3408 143.977 28.2229 144.113 28.3512C144.249 28.4795 145.097 30.669 145.997 33.2167L147.639 37.9964H148.928H150.124L151.946 32.9835L153.741 28.118L153.821 33.0572L153.901 37.9964H155.502H157.103V30.7604V23.5243H154.569L151.946 23.5488L150.589 28.0699C149.794 30.4764 149.046 32.3341 148.928 32.1982C148.809 32.0626 148.067 30.0609 147.279 27.7499L145.847 23.5488L143.435 23.5479L141.024 23.5473V30.7719ZM160.319 30.7719V37.9964H162.073H163.827V30.7719V23.5473H162.073H160.319V30.7719ZM80.496 32.5376C82.2788 33.1719 83.7745 34.4844 84.7603 36.279C85.5026 37.6311 85.6213 38.156 85.6157 40.0606C85.6052 43.4443 84.1224 45.8744 81.1819 47.3253C76.953 49.4121 71.6497 47.2333 70.1496 42.793C68.7963 38.7873 70.6782 34.4128 74.513 32.6494C75.9566 31.9859 78.7963 31.9325 80.496 32.5376ZM21.8393 35.4499C23.9328 36.3321 25.256 39.0323 24.6701 41.2268C24.0463 43.5641 22.153 45.0736 19.8457 45.0736C16.6409 45.0736 14.3913 42.4583 14.8637 39.2818C15.0862 37.7844 16.3986 36.0706 17.7908 35.4587C18.9453 34.9512 20.6473 34.9477 21.8393 35.4499ZM1.00028 37.9227C-0.285491 39.1187 -0.338115 41.0036 0.879539 42.2321C1.49728 42.8549 1.92792 43.0094 3.04617 43.0094C4.24629 43.0094 4.54858 42.882 5.19907 42.1021C7.64929 39.165 3.79256 35.3257 1.00028 37.9227ZM170.234 41.7992C168.035 42.5225 167.043 43.912 167.043 46.2678C167.043 47.5886 167.167 47.9109 167.993 48.7422C168.588 49.3405 169.682 49.945 170.92 50.3593C173.324 51.1646 174.043 52.1256 173.016 53.1618C172.319 53.8639 170.51 53.741 169.294 52.9091L168.248 52.1931L167.201 53.4827L166.153 54.7722L167.548 55.5993C168.787 56.3339 169.273 56.4264 171.466 56.5739C173.658 56.279 174.152 56.3241 174.841 55.8095C176.171 54.817 176.983 53.3842 176.982 52.0333C176.98 49.8099 175.643 48.4526 172.452 47.4341C170.918 46.9449 170.551 46.6229 170.551 45.7683C170.551 45.3059 170.797 44.9482 171.26 44.7353C172.118 44.3411 173.64 44.8075 174.369 45.2425C174.828 45.5159 174.883 45.5474 175.861 44.5849C176.478 43.9769 176.983 43.3765 176.983 43.2503C176.983 43.1244 176.428 42.7357 175.749 42.3863C174.408 41.6963 171.491 41.3855 170.234 41.7992ZM114.419 49.0544V56.279H116.173H117.928V49.0544V41.8299H116.173H114.419V49.0544ZM121.436 49.0544V56.279H125.821H130.206V54.8158V53.3523H127.466H124.718V47.4326V41.8299H123.037H121.436V49.0544ZM132.253 49.0544V56.279H133.854H135.454L135.535 51.6358L135.615 46.9923L138.397 51.5621L141.179 56.1316L143.148 56.2188L145.116 56.3058V49.068V41.8299H143.516H141.916L141.835 46.4188L141.754 51.0074L138.977 46.4217L136.237 41.8299L134.226 41.8328L132.253 41.8299V49.0544ZM148.625 49.0544V56.279H150.233H151.841V49.0544V41.8299H150.233H148.625V49.0544ZM153.887 43.2907V44.9261H155.971H157.834L157.913 50.6026L157.993 56.279H159.741H161.488V50.5288V44.7787H163.389H165.289V43.3043V41.8299H159.588H153.887V43.2907ZM179.614 49.0544V56.279H181.222L182.83 56.2935V53.1828C182.83 51.4798 182.867 50.0865 182.867 50.0865L185.499 53.1828L188.276 56.2127H192.178H196.023L196.601 54.8046L197.193 53.3078H199.816H202.441L203.053 54.7934L203.665 56.279H205.526C206.55 56.279 207.425 56.279 207.425 56.279C207.425 56.279 206.088 52.7183 204.515 48.907L201.654 41.9773H199.927H198.2L195.402 48.7124C193.863 52.4167 192.285 56.1056 192.178 56.1316C192.071 56.1575 190.771 54.0901 189.153 52.1507L186.33 48.4892L188.017 46.7078C188.945 45.7279 190.356 44.2293 191.153 43.378L192.602 41.8299H190.364H188.126L185.708 44.6312C184.378 46.172 182.83 47.4326 182.83 47.4326C182.83 47.4326 182.83 46.172 182.83 44.6312V41.8299H181.222H179.614V49.0544ZM206.256 41.8319C206.256 41.8319 207.403 44.1706 208.85 46.4005L211.481 50.4548V53.3671V56.279H213.089H214.697V53.3526V50.4262L217.27 46.4966C218.686 44.3355 220.143 41.8299 220.143 41.8299C220.143 41.8299 219.803 41.8299 218.256 41.8299H216.225L214.803 44.3355C214.021 45.7135 213.291 46.8414 213.181 46.842C213.071 46.8425 212.347 45.7158 211.573 44.3384L210.165 41.8337L208.192 41.8319C207.107 41.8308 206.256 41.8319 206.256 41.8319ZM221.86 48.6858C220.292 52.4568 218.827 56.279 218.827 56.279C218.827 56.279 219.222 56.279 220.601 56.279H222.474L223.092 54.8046L223.709 53.3302H226.337H228.963L229.489 54.8046L230.015 56.279H232.007H234L233.539 55.1732C233.285 54.5652 231.942 51.3141 230.555 47.9486L228.032 41.8299H226.371H224.71L221.86 48.6858ZM201.578 50.6763C201.578 50.7258 200.765 50.6763 199.816 50.6763H198.091L198.988 48.2954L199.885 45.9146L200.713 48.2052C201.168 49.4652 201.578 50.6267 201.578 50.6763ZM227.113 48.1188C227.52 49.2084 228.036 50.6763 228.036 50.6763C228.036 50.6763 227.115 50.6763 226.213 50.6763C225.026 50.6763 224.528 50.6763 224.528 50.6763C224.528 50.6763 225.152 49.0506 225.534 47.9649C225.916 46.8788 226.261 46.0237 226.301 46.0641C226.341 46.1048 226.707 47.0292 227.113 48.1188Z" fill="#231F20"/>
</svg>
